#!OML:ASF F:\twosubjects\two\Thursday\Session 1\justin.ASF
:FULLY-SPECIFIED
:DEGREES
546
root 10.8401 17.805 -11.9778 0.858277 -50.067 4.9818
lowerback -2.244 2.23932 -3.08939
upperback -0.107119 3.05646 0.632911
thorax 0.950782 1.51343 2.46621
lowerneck -22.8133 6.79661 -2.08012
upperneck 23.952 10.7856 -1.63226
head 11.5776 4.40257 1.49443
rclavicle -4.41799e-014 -5.1684e-015
rhumerus -31.4516 -20.454 -74.8959
rradius 24.3352
rwrist 2.65258
rhand -17.2685 11.7112
rfingers 7.12502
rthumb 8.97625 -18.0779
lclavicle -4.41799e-014 -5.1684e-015
lhumerus -31.711 17.0301 79.3216
lradius 25.9736
lwrist -17.166
lhand -0.175563 42.4275
lfingers 7.12502
lthumb 25.4222 70.7523
rfemur -5.10266 -3.03616 6.17342
rtibia 20.0403
rfoot -14.3255 -16.4893
rtoes -17.4595
lfemur -6.75172 10.8332 -26.4815
ltibia 16.8374
lfoot -13.5786 -0.706659
ltoes -8.60951
547
root 10.8433 17.8031 -11.9797 0.749702 -50.0447 5.09277
lowerback -2.24423 2.21683 -3.15021
upperback -0.10685 3.02824 0.61186
thorax 0.951025 1.49908 2.47795
lowerneck -22.9248 6.84588 -2.32724
upperneck 24.2333 10.8297 -1.16162
head 11.6562 4.45108 1.72158
rclavicle 5.06901e-015 -2.38542e-015
rhumerus -31.0561 -19.3132 -75.809
rradius 24.8911
rwrist 1.23154
rhand -17.4961 11.5123
rfingers 7.12502
rthumb 8.75666 -18.286
lclavicle 5.06901e-015 -2.38542e-015
lhumerus -31.5875 17.2238 79.4023
lradius 26.3386
lwrist -17.5747
lhand -1.29114 41.3763
lfingers 7.12502
lthumb 24.3531 69.849
rfemur -5.0591 -3.07958 6.09212
rtibia 19.992
rfoot -14.326 -16.5074
rtoes -17.4207
lfemur -6.74044 10.8274 -26.5654
ltibia 16.8475
lfoot -13.6459 -0.671976
ltoes -8.83013
548
root 10.8455 17.8058 -11.9825 0.890659 -49.9505 4.90492
lowerback -2.22091 2.15582 -3.03646
upperback -0.136488 2.9426 0.634321
thorax 0.917679 1.45766 2.43364
lowerneck -23.0008 6.94629 -2.30029
upperneck 24.4351 10.9346 -1.01307
head 11.7374 4.51092 1.79739
rclavicle 8.78628e-014 1.70955e-014
rhumerus -30.7597 -18.6182 -76.4115
rradius 25.2836
rwrist 0.954512
rhand -17.131 11.8873
rfingers 7.12502
rthumb 9.10896 -17.896
lclavicle 8.78628e-014 1.70955e-014
lhumerus -31.5244 17.497 79.4142
lradius 26.7267
lwrist -18.1111
lhand 0.674493 42.0417
lfingers 7.12502
lthumb 26.2363 70.248
rfemur -5.03512 -3.11511 6.24559
rtibia 19.9851
rfoot -14.3506 -16.6284
rtoes -17.015
lfemur -6.72932 10.7221 -26.4309
ltibia 16.8014
lfoot -13.6039 -0.694145
ltoes -8.94177
549
root 10.8487 17.8083 -11.9887 0.931778 -49.9975 4.77339
lowerback -2.08904 2.12699 -2.97757
upperback -0.161481 2.89821 0.648066
thorax 0.823212 1.43764 2.40743
lowerneck -22.8301 7.03239 -2.22296
upperneck 24.2864 11.0192 -1.03716
head 11.6528 4.56286 1.77819
rclavicle 2.04251e-014 -8.34896e-015
rhumerus -30.4532 -17.9888 -76.9091
rradius 25.4857
rwrist 1.14101
rhand -16.9832 12.0817
rfingers 7.12502
rthumb 9.2516 -17.6953
lclavicle 2.04251e-014 -8.34896e-015
lhumerus -31.1894 17.0747 79.6285
lradius 26.7362
lwrist -17.8753
lhand -0.245743 41.0789
lfingers 7.12502
lthumb 25.355 69.4133
rfemur -5.04355 -3.05392 6.35035
rtibia 20.0395
rfoot -14.3734 -16.6186
rtoes -16.7383
lfemur -6.63367 10.7444 -26.3189
ltibia 16.6885
lfoot -13.5256 -0.717609
ltoes -9.16291
550
root 10.8503 17.8078 -11.9939 0.646229 -50.1098 5.12964
lowerback -2.05311 2.16084 -3.23647
upperback -0.166411 2.94889 0.562134
thorax 0.786332 1.46289 2.46324
lowerneck -22.6683 7.08312 -2.11244
upperneck 24.0802 11.0572 -1.12319
head 11.5557 4.59068 1.7228
rclavicle -2.14439e-014 -2.78299e-015
rhumerus -30.1214 -17.515 -77.383
rradius 25.6832
rwrist 1.06376
rhand -16.5309 12.5595
rfingers 7.12502
rthumb 9.68793 -17.1977
lclavicle -2.14439e-014 -2.78299e-015
lhumerus -30.6415 16.0858 80.0578
lradius 26.6756
lwrist -16.9081
lhand -0.844987 40.7336
lfingers 7.12502
lthumb 24.7808 69.1482
rfemur -5.12523 -3.00129 6.08339
rtibia 20.1132
rfoot -14.4612 -16.4575
rtoes -16.6585
lfemur -6.57202 10.8073 -26.5682
ltibia 16.5623
lfoot -13.5233 -0.67969
ltoes -10.0539
551
root 10.8509 17.8076 -12.0007 0.354702 -50.0794 5.65394
lowerback -2.15929 2.19062 -3.6527
upperback -0.208775 3.00234 0.443868
thorax 0.783783 1.48886 2.57896
lowerneck -22.601 7.11115 -2.00175
upperneck 24.0752 11.0412 -1.07589
head 11.5439 4.60205 1.71712
rclavicle -1.61016e-014 9.54166e-015
rhumerus -29.8726 -17.622 -77.5843
rradius 25.8347
rwrist 1.6735
rhand -15.9087 13.1828
rfingers 7.12502
rthumb 10.2882 -16.5456
lclavicle -1.61016e-014 9.54166e-015
lhumerus -30.1256 14.6711 80.6038
lradius 26.8483
lwrist -15.6648
lhand -1.41356 40.7731
lfingers 7.12502
lthumb 24.2358 69.2615
rfemur -5.28979 -3.02297 5.71703
rtibia 20.1849
rfoot -14.5291 -16.4312
rtoes -16.8748
lfemur -6.66036 10.7981 -26.9522
ltibia 16.4484
lfoot -13.4572 -0.760768
ltoes -10.0977
